<svg width="475" height="618" viewBox="0 0 475 618" fill="none" xmlns="http://www.w3.org/2000/svg">
<path opacity="0.3" d="M454.57 235.931C431.571 185.811 391.681 149.953 353.418 111.649L269.971 28.1144C262.85 20.9858 248.4 0 237.402 0C227.021 0 213.589 19.3553 206.874 26.0796L123.428 109.614C91.8818 141.194 57.6903 171.143 33.8664 209.447C21.8106 229.742 12.8257 251.713 7.20421 274.644C-1.19172 308.301 -2.24713 343.374 4.10972 377.476C10.4666 411.578 24.0865 443.91 44.0431 472.271C82.7127 527.28 141.125 573.53 188.545 621.002H190.58C200.146 611.426 223.551 578.42 237.391 578.42C251.232 578.42 274.636 611.63 284.202 621.002C310.456 602.667 332.641 574.55 355.437 551.731C381.489 525.652 411.194 500.796 432.166 470.236C478.587 402.183 489.169 311.52 454.57 235.931ZM337.13 474.308C325.934 485.515 302.53 519.334 286.248 521.371C266.303 523.817 256.533 482.661 237.402 482.661C218.473 482.661 209.524 519.139 190.591 521.371C180.414 522.593 168.2 505.073 162.098 498.757C137.47 474.308 108.571 450.063 91.4757 419.299C61.9642 365.918 59.9293 299.097 92.086 246.119C107.757 220.243 130.756 200.073 151.921 178.876L212.979 117.754C218.686 112.04 228.446 97.7873 237.402 97.7873C251.231 97.7873 276.682 131.609 284.213 142.203L198.732 227.774C159.659 266.889 121.393 307.232 141.134 366.318C149.886 393.213 172.885 407.474 188.549 429.477H190.584C198.116 418.883 223.555 385.062 237.396 385.062C251.236 385.062 276.675 418.883 284.207 429.477H286.242C295.808 416.031 309.444 406.048 319.213 392.804C342.822 360.818 342.617 324.551 328.981 288.897L286.242 331.681H284.207C274.64 322.105 241.874 299.082 241.874 284.82C241.874 276.67 254.491 267.707 259.784 262.406L310.665 211.471C315.957 206.173 324.714 193.542 333.055 193.542C340.179 193.542 346.885 202.914 351.372 207.386C365.421 221.648 377.83 236.52 387.396 254.247C429.536 334.543 396.159 415.223 337.136 474.308H337.13Z" fill="url(#paint0_linear)"/>
<defs>
<linearGradient id="paint0_linear" x1="237.508" y1="0" x2="237.508" y2="727.815" gradientUnits="userSpaceOnUse">
<stop stop-color="#62D100"/>
<stop offset="0.891" stop-color="#3C641C" stop-opacity="0.102"/>
<stop offset="1" stop-color="#17181C"/>
</linearGradient>
</defs>
</svg>
